#!OML:ASF Y:\EmotionMaleHayes\Project 1\Capture day 1\Session 1\Male1.ASF
:FULLY-SPECIFIED
:DEGREES
2001
root -30.3648 16.9661 0.40284 -327.344 441.563 -687.057
lowerback 6.20849 2.43501 -10.8754
upperback 7.16447 3.46347 -4.98846
thorax 3.79786 1.55837 0.742673
lowerneck -21.194 -0.996613 -1.0472
upperneck 20.6198 -1.77127 3.27493
head 10.1205 -0.4621 1.07876
rclavicle -2.0276e-014 -6.36111e-015
rhumerus -18.6636 7.97388 -92.7165
rradius 27.4717
rwrist -0.834015
rhand -13.1179 -34.5163
rfingers 7.12502
rthumb 12.9795 -64.0926
lclavicle -2.0276e-014 -6.36111e-015
lhumerus -13.451 -9.07435 77.9849
lradius 20.0411
lwrist -16.2287
lhand -16.865 -26.4222
lfingers 7.12502
lthumb 9.3656 3.34973
rfemur -8.00072 15.0535 8.86175
rtibia 21.35
rfoot -15.8599 14.3471
rtoes 7.29949
lfemur 4.57635 6.8874 -18.5788
ltibia 8.34955
lfoot -14.776 12.437
ltoes -15.2422
2002
root -30.3573 16.9688 0.35337 -327.513 440.892 -687.032
lowerback 6.21445 2.52363 -11.319
upperback 7.29596 3.60602 -5.18007
thorax 3.92561 1.61432 0.777585
lowerneck -21.0789 -0.901398 -1.49832
upperneck 19.8593 -1.57764 3.65486
head 9.82993 -0.375756 1.30889
rclavicle 2.94201e-014 -9.85972e-014
rhumerus -18.5287 6.66391 -91.9785
rradius 26.7928
rwrist 0.628016
rhand -12.4285 -34.153
rfingers 7.12502
rthumb 13.644 -63.6858
lclavicle 2.94201e-014 -9.85972e-014
lhumerus -12.7023 -8.88933 77.8308
lradius 20.2929
lwrist -15.8635
lhand -17.1243 -26.7986
lfingers 7.12502
lthumb 9.11544 2.98442
rfemur -8.12713 14.7446 8.291
rtibia 21.719
rfoot -15.933 14.3441
rtoes 7.11886
lfemur 5.18972 7.22299 -19.1713
ltibia 7.69979
lfoot -14.547 12.6716
ltoes -14.633
2003
root -30.3538 16.9682 0.310228 -328.179 440.347 -687.515
lowerback 6.23473 2.57448 -11.4919
upperback 7.3081 3.68354 -5.38664
thorax 3.9309 1.65537 0.650311
lowerneck -21.0927 -0.804105 -1.64209
upperneck 19.7161 -1.37067 3.54809
head 9.775 -0.307018 1.32337
rclavicle -1.78906e-014 -9.85972e-014
rhumerus -18.7626 4.34529 -91.2356
rradius 26.2435
rwrist 3.24166
rhand -11.6089 -33.9648
rfingers 7.12502
rthumb 14.4339 -63.4429
lclavicle -1.78906e-014 -9.85972e-014
lhumerus -12.2515 -8.74569 77.6745
lradius 20.6082
lwrist -15.382
lhand -17.7428 -26.6421
lfingers 7.12502
lthumb 8.5186 3.16609
rfemur -8.28593 14.149 7.86474
rtibia 22.11
rfoot -15.9791 14.4439
rtoes 7.67499
lfemur 5.63544 7.41362 -19.5934
ltibia 7.3376
lfoot -14.5466 12.9941
ltoes -14.3556
2004
root -30.3557 16.9664 0.274206 -328.348 439.912 -687.609
lowerback 6.2427 2.60347 -11.7378
upperback 7.28989 3.7277 -5.59366
thorax 3.91124 1.67815 0.562979
lowerneck -21.0325 -0.753429 -1.69581
upperneck 19.3259 -1.2645 3.48175
head 9.62254 -0.276055 1.32002
rclavicle -1.74931e-014 -5.08889e-014
rhumerus -19.1409 3.31152 -90.6847
rradius 26.0616
rwrist 4.65371
rhand -11.1685 -34.0667
rfingers 7.12502
rthumb 14.8581 -63.5139
lclavicle -1.74931e-014 -5.08889e-014
lhumerus -11.6814 -8.47188 77.4853
lradius 20.7976
lwrist -14.972
lhand -18.5145 -26.4447
lfingers 7.12502
lthumb 7.77375 3.39237
rfemur -8.52796 13.567 7.47042
rtibia 22.4893
rfoot -16.3621 14.0492
rtoes 5.74107
lfemur 5.7787 7.75911 -19.9017
ltibia 7.25118
lfoot -14.5846 13.1013
ltoes -14.6574
2005
root -30.3572 16.9643 0.241233 -330.315 439.743 -689.577
lowerback 6.2076 2.58136 -11.6226
upperback 7.26214 3.70264 -5.63455
thorax 3.90942 1.67146 0.460496
lowerneck -21.16 -0.694556 -1.40663
upperneck 19.1788 -1.12966 2.8579
head 9.58331 -0.268476 1.07183
rclavicle -1.59028e-015 -7.95139e-015
rhumerus -19.411 2.70499 -90.153
rradius 25.7263
rwrist 5.837
rhand -11.0324 -33.9222
rfingers 7.12502
rthumb 14.9892 -63.3597
lclavicle -1.59028e-015 -7.95139e-015
lhumerus -11.0858 -7.5604 77.3227
lradius 20.8608
lwrist -14.8715
lhand -18.6392 -26.6589
lfingers 7.12502
lthumb 7.65345 3.18265
rfemur -8.71193 13.3417 7.67922
rtibia 22.8164
rfoot -16.7638 12.9895
rtoes 2.95486
lfemur 5.97452 7.72761 -19.7712
ltibia 6.93285
lfoot -14.5275 13.4681
ltoes -15.3257
2006
root -30.3577 16.9639 0.208601 -333.886 439.702 -693.172
lowerback 6.14292 2.55052 -11.2266
upperback 7.24768 3.66405 -5.50483
thorax 3.93496 1.65913 0.387805
lowerneck -21.1551 -0.602537 -1.31436
upperneck 18.9763 -0.898165 2.28254
head 9.50153 -0.225798 0.886964
rclavicle 1.98785e-015 4.29375e-014
rhumerus -19.65 2.29644 -89.52
rradius 25.4058
rwrist 6.82625
rhand -10.6875 -33.7447
rfingers 7.12502
rthumb 15.3215 -63.1572
lclavicle 1.98785e-015 4.29375e-014
lhumerus -10.5231 -6.16032 77.2892
lradius 20.9323
lwrist -15.1854
lhand -18.3304 -26.9611
lfingers 7.12502
lthumb 7.95143 2.86937
rfemur -8.92201 13.2986 8.32287
rtibia 23.2093
rfoot -16.8627 11.9064
rtoes 2.55088
lfemur 6.22678 7.44344 -19.3074
ltibia 6.52835
lfoot -14.5419 14.0384
ltoes -14.4919
2007
root -30.3556 16.9685 0.175253 -335.633 439.456 -694.85
lowerback 6.17529 2.60542 -11.3316
upperback 7.22634 3.71222 -5.36791
thorax 3.8752 1.67344 0.583577
lowerneck -21.4761 -0.515582 -1.29648
upperneck 19.0696 -0.670099 1.79395
head 9.5848 -0.176142 0.746547
rclavicle 3.1408e-014 4.77083e-015
rhumerus -19.9343 1.92719 -88.7122
rradius 25.229
rwrist 7.68011
rhand -10.2606 -33.5043
rfingers 7.12502
rthumb 15.7326 -62.8849
lclavicle 3.1408e-014 4.77083e-015
lhumerus -9.93742 -5.14294 77.4901
lradius 20.8615
lwrist -15.6361
lhand -19.0802 -25.9289
lfingers 7.12502
lthumb 7.22774 3.92767
rfemur -9.05314 13.1357 8.48424
rtibia 23.5705
rfoot -16.8661 11.1191
rtoes 3.4051
lfemur 6.49609 7.46184 -19.2343
ltibia 6.24937
lfoot -14.5062 14.3882
ltoes -14.1728
